<svg xmlns="http://www.w3.org/2000/svg" width="38" height="38" viewBox="0 0 38 38" fill="none">
  <g clip-path="url(#clip0_1_1482)">
    <path d="M30.5108 11.3117L32.7861 9.03648L30.5473 6.79685L28.1133 9.23083C25.8897 7.65509 23.295 6.68393 20.5833 6.4125V3.16667H23.75V0H14.25V3.16667H17.4167V6.4125C14.705 6.68393 12.1103 7.65509 9.88673 9.23083L7.45275 6.79685L5.21392 9.03648L7.48917 11.3117C5.36536 13.5604 3.94668 16.3819 3.40833 19.4277C2.86999 22.4735 3.23555 25.6104 4.45987 28.4508C5.68419 31.2912 7.71366 33.7109 10.2976 35.4109C12.8816 37.1109 15.9069 38.0168 19 38.0168C22.0931 38.0168 25.1184 37.1109 27.7024 35.4109C30.2863 33.7109 32.3158 31.2912 33.5401 28.4508C34.7645 25.6104 35.13 22.4735 34.5917 19.4277C34.0533 16.3819 32.6346 13.5604 30.5108 11.3117ZM19 34.8333C16.4948 34.8333 14.0458 34.0905 11.9628 32.6986C9.87975 31.3068 8.25624 29.3285 7.29752 27.014C6.33881 24.6995 6.08797 22.1526 6.57672 19.6955C7.06546 17.2384 8.27185 14.9814 10.0433 13.21C11.8148 11.4385 14.0718 10.2321 16.5289 9.74339C18.9859 9.25464 21.5328 9.50548 23.8473 10.4642C26.1619 11.4229 28.1401 13.0464 29.5319 15.1294C30.9238 17.2125 31.6667 19.6614 31.6667 22.1667C31.6629 25.5249 30.3272 28.7445 27.9525 31.1192C25.5779 33.4938 22.3583 34.8296 19 34.8333Z" fill="#12B46B"/>
    <path d="M19 12.6667V22.1667H9.5C9.5 24.0457 10.0572 25.8824 11.101 27.4447C12.1449 29.0069 13.6286 30.2246 15.3645 30.9436C17.1004 31.6626 19.0105 31.8508 20.8534 31.4842C22.6962 31.1176 24.3889 30.2129 25.7175 28.8843C27.0461 27.5557 27.9509 25.8629 28.3175 24.0201C28.684 22.1773 28.4959 20.2672 27.7769 18.5313C27.0578 16.7954 25.8402 15.3117 24.2779 14.2678C22.7157 13.2239 20.8789 12.6667 19 12.6667Z" fill="#12B46B"/>
  </g>
  <defs>
    <clipPath id="clip0_1_1482">
      <rect width="38" height="38" fill="white"/>
    </clipPath>
  </defs>
</svg>