<svg xmlns="http://www.w3.org/2000/svg" width="34" height="34" viewBox="0 0 34 34" fill="none">
  <g clip-path="url(#clip0_1_1491)">
    <path d="M8.3084 8.08603H8.79483C9.53407 8.08603 10.1333 7.48658 10.1333 6.74755V1.67235C10.1333 0.933315 9.53407 0.333943 8.79483 0.333943H8.3084C7.56923 0.333943 6.97 0.933315 6.97 1.67235V6.74755C6.97 7.48658 7.56923 8.08603 8.3084 8.08603ZM25.4761 8.05286H25.9626C26.7017 8.05286 27.301 7.45349 27.301 6.71439V1.63911C27.301 0.900153 26.7017 0.300781 25.9626 0.300781H25.4761C24.7368 0.300781 24.1376 0.900153 24.1376 1.63911V6.71432C24.1377 7.45349 24.737 8.05286 25.4761 8.05286Z" fill="#FF5757"/>
    <path d="M31.8241 3.05396H28.389V7.06489C28.389 8.40287 27.3006 9.14085 25.9627 9.14085H25.4763C24.1383 9.14085 23.0498 8.05232 23.0498 6.71434V3.05396H11.2213V6.7475C11.2213 8.08548 10.1329 9.17401 8.7949 9.17401H8.30848C6.97056 9.17401 5.8821 8.08548 5.8821 6.7475V3.05396H2.17594C0.976144 3.05396 0 4.0301 0 5.22996V31.5234C0 32.7232 0.976144 33.6994 2.17594 33.6994H31.8241C33.0239 33.6994 34 32.7232 34 31.5234V5.22996C34.0001 4.03017 33.0239 3.05396 31.8241 3.05396ZM31.8241 31.5234H2.17601L2.17594 11.6673H31.8245L31.8257 31.5233L31.8241 31.5234Z" fill="#FF5757"/>
    <path d="M18.1233 18.3276H22.0304C22.1048 18.3276 22.1761 18.298 22.2287 18.2455C22.2813 18.1929 22.3108 18.1215 22.3108 18.0472V14.664C22.3108 14.5896 22.2813 14.5183 22.2287 14.4657C22.1761 14.4131 22.1048 14.3835 22.0304 14.3835H18.1233C18.049 14.3835 17.9776 14.4131 17.925 14.4657C17.8724 14.5183 17.8429 14.5896 17.8429 14.664V18.0472C17.8429 18.1215 17.8724 18.1929 17.925 18.2455C17.9776 18.298 18.049 18.3276 18.1233 18.3276ZM24.4995 18.3276H28.4065C28.4809 18.3276 28.5523 18.298 28.6048 18.2455C28.6574 18.1929 28.687 18.1215 28.687 18.0472V14.664C28.687 14.5896 28.6574 14.5183 28.6048 14.4657C28.5523 14.4131 28.4809 14.3835 28.4065 14.3835H24.4995C24.4251 14.3835 24.3538 14.4131 24.3012 14.4657C24.2486 14.5183 24.2191 14.5896 24.2191 14.664V18.0472C24.2191 18.1215 24.2486 18.1929 24.3012 18.2455C24.3538 18.298 24.4251 18.3276 24.4995 18.3276ZM5.37122 23.8663H9.27817C9.35255 23.8663 9.42388 23.8368 9.47648 23.7842C9.52907 23.7316 9.55862 23.6602 9.55862 23.5859V20.2026C9.55862 20.1282 9.52907 20.0569 9.47648 20.0043C9.42388 19.9517 9.35255 19.9222 9.27817 19.9222H5.37122C5.29684 19.9222 5.22551 19.9517 5.17291 20.0043C5.12032 20.0569 5.09077 20.1282 5.09077 20.2026V23.5859C5.09077 23.6602 5.12032 23.7316 5.17291 23.7842C5.22551 23.8368 5.29684 23.8663 5.37122 23.8663ZM11.7473 23.8663H15.6543C15.7287 23.8663 15.8 23.8368 15.8526 23.7842C15.9052 23.7316 15.9347 23.6602 15.9347 23.5859V20.2026C15.9347 20.1282 15.9052 20.0569 15.8526 20.0043C15.8 19.9517 15.7287 19.9222 15.6543 19.9222H11.7473C11.6729 19.9222 11.6016 19.9517 11.549 20.0043C11.4964 20.0569 11.4669 20.1282 11.4669 20.2026V23.5859C11.4669 23.6602 11.4964 23.7316 11.549 23.7842C11.6016 23.8368 11.6729 23.8663 11.7473 23.8663ZM18.1234 23.8663H22.0304C22.1048 23.8663 22.1761 23.8368 22.2287 23.7842C22.2813 23.7316 22.3108 23.6602 22.3108 23.5859V20.2026C22.3108 20.1282 22.2813 20.0569 22.2287 20.0043C22.1761 19.9517 22.1048 19.9222 22.0304 19.9222H18.1234C18.049 19.9222 17.9777 19.9517 17.9251 20.0043C17.8725 20.0569 17.843 20.1282 17.843 20.2026V23.5859C17.843 23.6602 17.8725 23.7316 17.9251 23.7842C17.9777 23.8368 18.049 23.8663 18.1234 23.8663ZM24.4995 23.8663H28.4065C28.4809 23.8663 28.5523 23.8368 28.6048 23.7842C28.6574 23.7316 28.687 23.6602 28.687 23.5859V20.2026C28.687 20.1282 28.6574 20.0569 28.6048 20.0043C28.5523 19.9517 28.4809 19.9222 28.4065 19.9222H24.4995C24.4251 19.9222 24.3538 19.9517 24.3012 20.0043C24.2486 20.0569 24.2191 20.1282 24.2191 20.2026V23.5859C24.2191 23.6602 24.2486 23.7316 24.3012 23.7842C24.3538 23.8368 24.4251 23.8663 24.4995 23.8663ZM9.27817 25.4609H5.37129C5.29691 25.4609 5.22558 25.4904 5.17298 25.543C5.12039 25.5956 5.09084 25.6669 5.09084 25.7413V29.1246C5.09084 29.1989 5.12039 29.2703 5.17298 29.3229C5.22558 29.3755 5.29691 29.405 5.37129 29.405H9.27824C9.35262 29.405 9.42395 29.3755 9.47655 29.3229C9.52914 29.2703 9.55869 29.1989 9.55869 29.1246V25.7413C9.55865 25.6669 9.52908 25.5956 9.47648 25.543C9.42388 25.4905 9.35255 25.4609 9.27817 25.4609ZM15.6543 25.4609H11.7474C11.673 25.4609 11.6017 25.4904 11.5491 25.543C11.4965 25.5956 11.4669 25.6669 11.4669 25.7413V29.1246C11.4669 29.1989 11.4965 29.2703 11.5491 29.3229C11.6017 29.3755 11.673 29.405 11.7474 29.405H15.6543C15.7287 29.405 15.8001 29.3755 15.8526 29.3229C15.9052 29.2703 15.9348 29.1989 15.9348 29.1246V25.7413C15.9348 25.6669 15.9052 25.5956 15.8526 25.543C15.8001 25.4904 15.7287 25.4609 15.6543 25.4609ZM22.0305 25.4609H18.1235C18.0491 25.4609 17.9778 25.4904 17.9252 25.543C17.8726 25.5956 17.843 25.6669 17.843 25.7413V29.1246C17.843 29.1989 17.8726 29.2703 17.9252 29.3229C17.9778 29.3755 18.0491 29.405 18.1235 29.405H22.0305C22.1049 29.405 22.1762 29.3755 22.2288 29.3229C22.2814 29.2703 22.311 29.1989 22.311 29.1246V25.7413C22.311 25.6669 22.2814 25.5956 22.2288 25.543C22.1762 25.4904 22.1049 25.4609 22.0305 25.4609ZM28.4065 25.4609H24.4995C24.4251 25.4609 24.3538 25.4904 24.3012 25.543C24.2486 25.5956 24.2191 25.6669 24.2191 25.7413V29.1246C24.2191 29.1989 24.2486 29.2703 24.3012 29.3229C24.3538 29.3755 24.4251 29.405 24.4995 29.405H28.4065C28.4809 29.405 28.5523 29.3755 28.6048 29.3229C28.6574 29.2703 28.687 29.1989 28.687 29.1246V25.7413C28.687 25.6669 28.6574 25.5956 28.6048 25.543C28.5523 25.4904 28.4809 25.4609 28.4065 25.4609Z" fill="#FF5757"/>
  </g>
  <defs>
    <clipPath id="clip0_1_1491">
      <rect width="34" height="34" fill="white"/>
    </clipPath>
  </defs>
</svg>