<svg xmlns="http://www.w3.org/2000/svg" width="38" height="38" viewBox="0 0 38 38" fill="none">
  <g clip-path="url(#clip0_1_1500)">
    <path d="M13.9086 23.1648C13.8265 23.0731 13.7729 22.9596 13.7543 22.838C13.7357 22.7164 13.753 22.592 13.804 22.48C15.1654 19.4873 13.6887 17.8125 13.8358 11.0506C13.8428 10.7296 14.0929 10.4235 14.4936 10.4311C14.8391 10.4376 15.1098 10.7313 15.1023 11.0768C15.0957 11.3774 15.0928 11.6792 15.0932 11.9817C15.0936 12.3322 15.3798 12.6184 15.7304 12.6137C16.7605 12.5996 18.7644 12.2603 19.54 9.9338L19.9257 8.77676C20.6395 6.63541 19.42 4.32353 17.2268 3.71987L13.2825 2.63423C11.7111 2.20174 10.0095 2.79431 9.04769 4.10867C4.43486 10.4118 1.37231 17.6607 0.0717275 25.339C-0.285718 27.449 0.71703 29.5778 2.56712 30.6363C12.955 36.5798 25.2722 37.1557 36.4325 31.9559C37.3848 31.5123 38.0002 30.5456 38.0002 29.4933V18.1754C38.0002 17.2728 37.5556 16.4327 36.811 15.928C32.8072 13.2145 27.7088 13.5395 24.2937 17.1425C23.9893 17.4636 24.1047 17.9901 24.5129 18.1608C26.0558 18.8058 27.5144 19.7431 28.7317 20.85C28.7956 20.9078 28.8469 20.978 28.8827 21.0563C28.9185 21.1346 28.9379 21.2194 28.9398 21.3054C28.9417 21.3915 28.9261 21.4771 28.8938 21.5569C28.8616 21.6367 28.8134 21.7091 28.7522 21.7697C28.6373 21.8841 28.4829 21.9501 28.3208 21.954C28.1587 21.9579 28.0013 21.8994 27.8811 21.7906C24.6911 18.9099 20.3786 17.5994 16.0883 18.9701C15.8251 19.0542 15.6488 19.3032 15.6532 19.5795C15.6712 20.7283 15.4793 21.8409 14.955 23.0063C14.768 23.4217 14.2126 23.5038 13.9086 23.1648Z" fill="#3294DF"/>
  </g>
  <defs>
    <clipPath id="clip0_1_1500">
      <rect width="38" height="38" fill="white"/>
    </clipPath>
  </defs>
</svg>