<svg xmlns="http://www.w3.org/2000/svg" width="38" height="38" viewBox="0 0 38 38" fill="none">
  <path d="M28.4881 15.4019L29.3728 11.5306H24.6109L24.4091 12.6825C20.1638 10.3134 15.1584 11.9938 13.2822 12.7834L13.1159 11.5306H8.53813L9.50594 15.4078C8.13438 16.9694 1.44281 25.5253 10.2541 34.4316C11.0296 35.1996 12.0779 35.6287 13.1694 35.625H24.8306C25.9221 35.6287 26.9704 35.1996 27.7459 34.4316C36.5691 25.5134 29.8478 16.9516 28.4881 15.4019ZM8.24125 10.3431H12.9556L12.7419 8.76375C12.7149 8.54825 12.7338 8.32949 12.7972 8.12179C12.8607 7.91408 12.9673 7.72211 13.11 7.55844C13.2517 7.39544 13.4269 7.26492 13.6236 7.17578C13.8204 7.08663 14.034 7.04096 14.25 7.04188H23.5778C23.7997 7.04189 24.0189 7.09037 24.2202 7.18391C24.4214 7.27745 24.5998 7.4138 24.7428 7.58343C24.8859 7.75307 24.9902 7.95189 25.0484 8.16602C25.1067 8.38014 25.1174 8.6044 25.08 8.82313L24.8128 10.3431H29.6459L29.6816 10.1947C29.8963 9.25838 29.8972 8.28571 29.6842 7.34901C29.4712 6.41231 29.0498 5.53567 28.4513 4.78428C27.8528 4.03289 27.0926 3.42607 26.2273 3.00895C25.362 2.59184 24.4137 2.37515 23.4531 2.375H14.44C13.4694 2.37478 12.5114 2.59562 11.6389 3.02078C10.7663 3.44593 10.002 4.06423 9.404 4.82877C8.80599 5.59331 8.38996 6.484 8.18746 7.43328C7.98497 8.38256 8.00133 9.36549 8.23531 10.3075L8.24125 10.3431Z" fill="#B222CA"/>
</svg>